<svg width="25" height="25" viewBox="0 0 25 25" fill="none" xmlns="http://www.w3.org/2000/svg">
<path d="M12.5 8.036C11.6171 8.036 10.754 8.29781 10.0199 8.78832C9.28583 9.27883 8.71367 9.97601 8.3758 10.7917C8.03793 11.6074 7.94953 12.505 8.12177 13.3709C8.29402 14.2368 8.71917 15.0322 9.34348 15.6565C9.96778 16.2808 10.7632 16.706 11.6291 16.8782C12.495 17.0505 13.3926 16.9621 14.2083 16.6242C15.024 16.2863 15.7212 15.7142 16.2117 14.9801C16.7022 14.246 16.964 13.3829 16.964 12.5C16.9606 11.3171 16.4892 10.1837 15.6527 9.34726C14.8163 8.51084 13.6829 8.03943 12.5 8.036ZM23.155 11.31C22.8789 8.89506 21.793 6.64485 20.0741 4.9262C18.3553 3.20755 16.105 2.12182 13.69 1.846V0H11.31V1.845C8.89503 2.12082 6.64471 3.20655 4.92587 4.9252C3.20704 6.64385 2.12107 8.89406 1.845 11.309H0V13.69H1.845C2.12086 16.1051 3.20673 18.3556 4.92559 20.0744C6.64444 21.7933 8.89488 22.8791 11.31 23.155V25H13.69V23.155C16.1051 22.8791 18.3556 21.7933 20.0744 20.0744C21.7933 18.3556 22.8791 16.1051 23.155 13.69H25V11.31H23.155ZM12.5 20.833C10.8519 20.833 9.24079 20.3443 7.87043 19.4286C6.50008 18.513 5.43202 17.2116 4.80131 15.6889C4.17061 14.1662 4.00559 12.4908 4.32712 10.8743C4.64865 9.25787 5.44229 7.77307 6.60768 6.60768C7.77307 5.44229 9.25787 4.64865 10.8743 4.32712C12.4908 4.00559 14.1662 4.17061 15.6889 4.80131C17.2116 5.43202 18.513 6.50008 19.4286 7.87043C20.3443 9.24079 20.833 10.8519 20.833 12.5C20.8264 14.708 19.9464 16.8237 18.385 18.385C16.8237 19.9464 14.708 20.8264 12.5 20.833Z" fill="white"/>
</svg>
